<svg width="44" height="26" viewBox="0 0 44 26" fill="none" xmlns="http://www.w3.org/2000/svg">
<path d="M15.532 13.04C16.996 13.352 18.172 14.084 19.06 15.236C19.948 16.364 20.392 17.66 20.392 19.124C20.392 21.236 19.648 22.916 18.16 24.164C16.696 25.388 14.644 26 12.004 26H0.232V0.727999H11.608C14.176 0.727999 16.18 1.316 17.62 2.492C19.084 3.668 19.816 5.264 19.816 7.28C19.816 8.768 19.42 10.004 18.628 10.988C17.86 11.972 16.828 12.656 15.532 13.04ZM6.388 10.952H10.42C11.428 10.952 12.196 10.736 12.724 10.304C13.276 9.848 13.552 9.188 13.552 8.324C13.552 7.46 13.276 6.8 12.724 6.344C12.196 5.888 11.428 5.66 10.42 5.66H6.388V10.952ZM10.924 21.032C11.956 21.032 12.748 20.804 13.3 20.348C13.876 19.868 14.164 19.184 14.164 18.296C14.164 17.408 13.864 16.712 13.264 16.208C12.688 15.704 11.884 15.452 10.852 15.452H6.388V21.032H10.924Z" fill="white"/>
<path d="M36.8505 26L31.5945 16.46H30.1185V26H23.9625V0.727999H34.2945C36.2865 0.727999 37.9785 1.076 39.3705 1.772C40.7865 2.468 41.8425 3.428 42.5385 4.652C43.2345 5.852 43.5825 7.196 43.5825 8.684C43.5825 10.364 43.1025 11.864 42.1425 13.184C41.2065 14.504 39.8145 15.44 37.9665 15.992L43.7985 26H36.8505ZM30.1185 12.104H33.9345C35.0625 12.104 35.9025 11.828 36.4545 11.276C37.0305 10.724 37.3185 9.944 37.3185 8.936C37.3185 7.976 37.0305 7.22 36.4545 6.668C35.9025 6.116 35.0625 5.84 33.9345 5.84H30.1185V12.104Z" fill="#F59300"/>
</svg>
