<svg xmlns="http://www.w3.org/2000/svg" viewBox="0 0 512 512"><defs><style>.cls-1{fill:#de572c;}</style></defs><g id="Calque_2" data-name="Calque 2"><g id="Calque_1-2" data-name="Calque 1"><path class="cls-1" d="M511.41,232.47C504.37,121.89,409,3.77,262.16.08,125.14-3.36,5.06,103.74.14,248.6-4.4,382.53,99.21,505.06,245.46,511.73c140.42,6.4,255-100.05,266.54-232.51H303v6.71c0,21.08,0,42.16-.07,63.24-.06,10.13-5,17.46-14.38,21.08-9,3.49-17.69,2-24.71-4.94Q217,318.75,170.33,272c-9.34-9.4-9.51-22.94-.24-32.28q46.51-46.89,93.48-93.33A22,22,0,0,1,283,139.85c12.64,1.93,20.29,11.22,20.37,25,.11,20.54,0,41.07,0,61.61v6.06Z"/></g></g></svg>