<svg xmlns="http://www.w3.org/2000/svg" viewBox="0 0 512 512"><defs><style>.cls-1{fill:#f59300;}</style></defs><g id="Calque_2" data-name="Calque 2"><g id="Calque_1-2" data-name="Calque 1"><path class="cls-1" d="M223,512c-8.32-3.93-11.19-10.39-11.15-19.62.28-68.79.15-137.58.15-206.38v-6.22c-4.14.68-7.74,1.25-11.34,1.86-9.18,1.55-17.1-3.75-18.52-12.42-1.35-8.24,4.63-15.73,13.59-17.22q74.55-12.44,149.1-24.9L465.54,207c8.34-1.39,16.7-2.7,25-4.19,11.6-2.09,16-.06,21.43,10.22v8c-3.19,8.11-9.71,11.16-17.85,12-4,.43-8,1.36-12.15,2.08v6.5q0,125.11.13,250.22c0,9.27-2.66,16.08-11.13,20.2h-8c-8.32-3.93-11.82-10.37-11.1-19.63.52-6.71.1-13.49.1-20H242c0,6.73-.36,13.08.09,19.38.66,9.3-2.61,16.1-11.09,20.22Zm19.21-70.34h209.4V337.25H242.21Z"/><path class="cls-1" d="M0,193c.42-.66.9-1.28,1.26-2,3.5-6.76,10.24-10.26,16.83-8.7,7.2,1.7,11.79,7.52,11.89,15.27.08,6.33,0,12.66,0,19V332H153.7c10.43,0,16.3,5.91,16.3,16.4,0,47.83-.17,95.66.14,143.48.06,9.3-2.51,16.13-11.14,20.12h-8c-8.62-4-11.35-10.81-11.15-20.12.46-21.49.15-43,.15-64.49v-5.14H30v5.63c0,21.34-.31,42.68.14,64C30.34,501.19,27.63,508,19,512H12A18.36,18.36,0,0,1,0,500ZM139.79,362.34H30.39v29.41h109.4Z"/><path class="cls-1" d="M268,0c6.14,1.63,12.47,2.78,18.4,5,36,13.31,57.84,38.77,63.58,76.82,7.63,50.61-27,98-77.34,107-52.87,9.5-104.38-28.48-110.78-81.7-6.21-51.68,27.82-97,79.63-106.06A11.79,11.79,0,0,0,244,0Zm53,95.09C321,59.59,292.27,30,257.8,30,220.34,30,191,58.47,191,94.89S220.26,160,257.6,160C292.15,160,321,130.49,321,95.09Z"/><path class="cls-1" d="M271,80c5.27,0,10.06,0,14.84,0,8.84.08,15.17,6.37,15.16,15s-6.35,14.92-15.2,15q-14.24.08-28.47,0c-10,0-16.25-6.19-16.32-16.11-.06-9.15,0-18.31,0-27.46,0-9.89,6.29-16.46,15.51-16.42C265,50.05,271,56.68,271,66.2,271,70.52,271,74.85,271,80Z"/></g></g></svg>