<svg xmlns="http://www.w3.org/2000/svg" viewBox="0 0 512 512"><defs><style>.cls-1{fill:#f49302;}</style></defs><g id="Calque_2" data-name="Calque 2"><g id="Calque_1-2" data-name="Calque 1"><path class="cls-1" d="M255.87,0C397.17-.11,512,114.68,512,256S397.12,512.13,255.84,512,.15,397.36,0,256.27C-.15,114.92,114.49.11,255.87,0ZM95,403.65c17.6-74.68,80.3-127.16,153.31-128.45,88.5-1.58,143.15,45.21,169.38,127.77,70.61-72.75,83.82-206-1.32-297-87.68-93.74-234.07-93.44-321.19.41C10.14,198,24.29,331.14,95,403.65ZM245.5,475.5c51.16-.05,91-11,124.89-32.46,16.69-10.56,14.32-5.12,12.5-24.78a85.69,85.69,0,0,0-1.7-10.68c-15.53-69.52-80.9-112.36-150.87-98.92-56.18,10.79-100,61.89-102.33,119-.2,4.79,1.27,7.51,5.2,10.13C170.44,462.69,211.41,475.23,245.5,475.5Z"/><path class="cls-1" d="M256.23,73.14a91.45,91.45,0,0,1,91.2,91.8c-.13,50.42-41.34,91.23-92,91.06-50.16-.18-90.94-41.22-90.91-91.52A91.46,91.46,0,0,1,256.23,73.14ZM256,219.42a54.85,54.85,0,1,0-54.85-54.86A55,55,0,0,0,256,219.42Z"/></g></g></svg>