<svg xmlns="http://www.w3.org/2000/svg" viewBox="0 0 512 512"><defs><style>.cls-1{fill:#f49301;}</style></defs><g id="Calque_2" data-name="Calque 2"><g id="Calque_1-2" data-name="Calque 1"><path class="cls-1" d="M366.78,179.21c-2.64,6.63-4.08,13.14-7.53,18.3-5.46,8.17-1.16,14.8,1.67,21.81.48,1.18,2.35,2,3.74,2.57,5.39,2.27,10.85,4.36,16.27,6.56,7.73,3.15,11.74,8.85,11.74,17.27,0,6.93,0,13.87,0,20.8,0,8.18-3.92,13.8-11.41,17a96.77,96.77,0,0,1-10.38,4.09c-6.71,1.93-11.24,5.47-13.28,12.66-1.08,3.82-1.63,6.88.14,10.51,2.34,4.77,4.26,9.75,6.33,14.65,3,7.14,1.86,13.62-3.43,19.18-5.13,5.41-10.42,10.68-15.8,15.85-5.71,5.47-12.33,6.6-19.63,3.45-5.54-2.39-11-4.92-16.67-7a11.36,11.36,0,0,0-6,0c-8.58,1.82-12.74,7.52-15.7,15.7-7.05,19.47-8.61,20.09-29.56,20.09-4.09,0-8.18.09-12.26,0-7.43-.23-12.86-3.68-15.82-10.59-2.3-5.37-4.57-10.78-6.51-16.29-1.17-3.29-3.39-4.71-6.34-6.37-6.95-3.93-13.23-3.27-19.84.47a83.37,83.37,0,0,1-10.25,4.43c-6.77,2.69-13,1.53-18.23-3.43-5.67-5.37-11.21-10.9-16.56-16.59-4.94-5.26-6.1-11.49-3.33-18.25,2.28-5.58,4.69-11.11,7-16.68s-2.44-17.11-8.16-19.44c-5.41-2.2-10.88-4.29-16.26-6.57-7.3-3.11-11-8.72-11-16.66,0-6.93,0-13.86,0-20.8,0-8.43,4-14.14,11.68-17.3,5.25-2.15,10.54-4.2,15.79-6.34,5.43-2.21,10.31-13.68,8.08-19s-4.54-10.8-6.85-16.17c-3.15-7.33-2-13.93,3.51-19.63,5.17-5.37,10.44-10.67,15.84-15.81s11.68-6.42,18.66-3.56a85.52,85.52,0,0,1,9.77,4.2c6.76,3.84,13.47,5.14,20.2.34,2.26-1.6,4.72-3.52,5.92-5.88,2.56-5,4.29-10.5,6.47-15.74,3.13-7.5,8.76-11.37,16.95-11.38,7.1,0,14.21-.07,21.31,0,7.7.09,13.16,3.73,16.23,10.81a83.81,83.81,0,0,1,4.1,10.38c2,7.09,5.74,12,13.31,14,3.42.92,6.17,1.62,9.52,0,5.09-2.49,10.4-4.53,15.63-6.72,7-2.91,13.28-1.66,18.67,3.46a215.11,215.11,0,0,1,16.1,16.29C363.37,170.94,364.75,175.3,366.78,179.21Zm-59.4,77.07a51.16,51.16,0,1,0-51.43,51A51.32,51.32,0,0,0,307.38,256.28Z"/><path class="cls-1" d="M147.29,35c-1.5-1.55-1.55-6-.44-8.22s4.25-4.14,6.89-5.29C192.55,4.68,233-2.6,275.25.83,341.05,6.15,397,32.73,442.3,80.58c38.43,40.54,61.08,89,67.71,144.54,7.84,65.58-7.54,125.45-45.46,179.52-.41.58-.83,1.15-1.19,1.76a10.76,10.76,0,0,0-.55,1.65c8.66,8.66,17.55,17.53,26.43,26.42a35.81,35.81,0,0,1,4,4.27,8.39,8.39,0,0,1-6.06,13.5,85.49,85.49,0,0,1-9.06.1q-41.3,0-82.59,0c-8.67,0-11.38-2.75-11.38-11.53,0-29.33,0-58.66,0-88,0-4.53.5-8.58,5.21-10.66,5.06-2.22,8.4.6,11.65,3.93,7.93,8.13,15.93,16.21,24.36,24.76,1.23-1.63,2.2-2.77,3-4,48.94-74.72,41.74-177.1-17-244.32C378.23,84.65,336.9,61.57,287.39,53.64c-37.65-6-74.27-1.38-109.57,13.18-2.29.94-4.77,2.63-6.94,2.33-3-.41-6.85-1.65-8.38-3.88"/><path class="cls-1" d="M366.46,481.22c-.08,2.82-2.72,7-5.3,8.09-11.4,4.84-23,9.58-34.85,12.92C187,541.3,44.51,459.76,8.6,319.45c-19.29-75.36-5.91-145.77,38-210.19,1-1.45,2-2.9,3.45-5-9.59-9.54-18.88-18.82-28.23-28C18.56,73,16.1,69.72,18.2,64.94s6.1-5.25,10.63-5.24c29.31.07,58.62,0,87.93,0,8.78,0,11.53,2.71,11.53,11.36,0,29.51,0,59,.05,88.53,0,4.62-.86,8.54-5.59,10.43-4.55,1.82-7.78-.51-10.8-3.6-8.18-8.35-16.42-16.63-25.9-26.21-6.74,13.31-13.77,25.22-19,37.88C19.79,292,84.4,422.3,203.57,453.87c44.92,11.9,88.93,8.75,131.9-8.95,2.27-.94,4.8-2.39,7-2.09,2.68.38,6.11,1.74,7.42,3.81Z"/></g></g></svg>