<svg xmlns="http://www.w3.org/2000/svg" viewBox="0 0 512 512"><defs><style>.cls-1{fill:#f49200;}.cls-2{fill:#f19101;}.cls-3{fill:#f29201;}</style></defs><g id="Calque_2" data-name="Calque 2"><g id="Calque_1-2" data-name="Calque 1"><path class="cls-1" d="M465,512H46a20.57,20.57,0,0,0-3-1.34C21.12,504.78,7.17,490.94,1.33,469A20.14,20.14,0,0,0,0,466V78a38.56,38.56,0,0,0,1.8-4.39C7.28,54,19.68,40.77,39,34.81c6.84-2.1,14.37-2.37,21.61-2.62,11.74-.41,23.51-.11,35.69-.11,0-4.69.22-8.83,0-12.94C95.7,9.94,99.18,3.37,108,0h7c8.62,3.56,12.15,10,11.39,19.24-.34,4.09-.06,8.24-.06,12.49h66.55c0-4.31.31-8.31-.06-12.24C191.94,10.25,195.46,3.74,204,0h7c8.93,3.24,12.48,9.77,11.92,19-.26,4.24,0,8.51,0,12.73h66.26c0-4.46.22-8.61-.05-12.73-.59-9.28,3-15.76,11.92-19h7c8.57,3.73,12,10.28,11.18,19.51-.37,4.06-.06,8.19-.06,12.3h66.37C386.54,20.26,381.9,6.9,396,0h8c8.85,3.36,12.27,10,11.71,19.14-.26,4.21,0,8.46,0,13,14.27,0,27.72-.16,41.16,0,24.58.36,45.16,15.57,52.57,38.6.88,2.75,1.73,5.52,2.6,8.28V466c-.64,1.62-1.42,3.2-1.9,4.87-5.6,19.5-18.16,32.29-37.29,38.74C470.24,510.48,467.61,511.21,465,512ZM30,158.78V454.25C30,471.67,40.24,482,57.55,482h396.9c17.27,0,27.54-10.36,27.55-27.74V158.78Z"/><path class="cls-2" d="M119.49,337.32c10,0,20-.05,30,0,11.08.07,17.1,5.93,17.15,16.91q.15,30.22,0,60.43c0,11-6.06,17-17,17.06q-30.23.11-60.43,0c-10.9-.05-16.9-6.18-16.93-17.18q-.07-30,0-59.93c0-11.29,6-17.22,17.3-17.29C99.51,337.27,109.5,337.32,119.49,337.32Zm-17,64h34.13c0-10.71.06-21-.09-31.26,0-.91-1.35-2.57-2.09-2.58-10.57-.17-21.14-.12-31.95-.12Z"/><path class="cls-2" d="M392.55,431.76c-9.82,0-19.65,0-29.47,0-11.74,0-17.66-5.81-17.69-17.4q-.09-30,0-59.93c.05-11.05,6-17,17-17.07q30.21-.12,60.43,0c11,0,16.93,6.1,17,17.12q.08,30.21,0,60.42c0,10.65-6.14,16.68-16.76,16.87H392.55Zm17-64.42c-10.78,0-21.2-.08-31.61.15-.88,0-2.37,2-2.46,3.21-.3,4.29-.12,8.62-.12,12.94V401.4h34.19Z"/><path class="cls-3" d="M392.28,303.08c-10.32,0-20.64.06-31,0-9.5-.08-15.78-6-15.87-15.51q-.3-31.47,0-62.92c.09-9.84,6.31-15.67,16.2-15.69q31-.09,61.92,0c9.78,0,16.1,6,16.17,15.76q.24,31.2,0,62.41c-.07,10-6.37,15.9-16.5,16C412.92,303.13,402.6,303.08,392.28,303.08Zm-16.55-64v33.65h33.7V239.11Z"/><path class="cls-3" d="M119.21,303.08c-10.32,0-20.64.06-31,0-9.71-.08-15.94-6.16-16-15.95q-.2-31.22,0-62.42c.07-9.7,6.39-15.72,16.18-15.75q31-.09,61.92,0c9.87,0,16.11,5.86,16.19,15.69q.28,31.45,0,62.92c-.09,9.56-6.37,15.44-15.87,15.51C140.18,303.14,129.69,303.08,119.21,303.08Zm17-30.16V239.27H102.59v33.65Z"/><path class="cls-3" d="M303.08,384.52c0,10.32.05,20.64,0,31-.06,10-6.09,16.18-16.21,16.23q-31,.18-61.92,0c-10-.07-16-6.36-16-16.46q-.08-30.71,0-61.42c0-10.38,6-16.42,16.47-16.47q30.47-.15,60.92,0c10.8,0,16.7,6,16.75,16.71C303.12,364.21,303.08,374.36,303.08,384.52Zm-30.25,16.93V367.63H239.17v33.82Z"/><path class="cls-3" d="M245,259c2.46-3.21,4-5.66,5.93-7.66,9.46-9.61,18.95-19.19,28.61-28.6a14.92,14.92,0,1,1,21.23,21q-22.59,23-45.57,45.55c-6.12,6-14.45,6.14-20.69.28q-12.19-11.44-23.66-23.66A14.89,14.89,0,0,1,231.92,245C236.18,248.9,239.84,253.47,245,259Z"/></g></g></svg>